<?xml version="1.0" standalone="no"?>
<svg viewBox="0 0 200 200" xmlns="http://www.w3.org/2000/svg">
  <path fill="#F1C21B" d="M46.6,-73.9C60.9,-72.5,73.4,-61,74.2,-47.1C75,-33.1,64.1,-16.5,61.6,-1.5C59.1,13.6,64.9,27.2,63.8,40.7C62.7,54.1,54.6,67.4,42.8,72.8C31,78.2,15.5,75.7,0.7,74.5C-14.1,73.3,-28.2,73.3,-41.7,68.9C-55.2,64.5,-68.1,55.6,-75.4,43.4C-82.7,31.1,-84.5,15.6,-83.5,0.6C-82.5,-14.4,-78.7,-28.8,-71.8,-41.7C-64.8,-54.6,-54.7,-66,-42.2,-68.5C-29.8,-71,-14.9,-64.6,0.6,-65.7C16.1,-66.8,32.3,-75.3,46.6,-73.9Z" transform="translate(100 100)" />
</svg>
